<?xml version="1.0" encoding="UTF-8" standalone="no"?>
<!DOCTYPE svg PUBLIC "-//W3C//DTD SVG 1.1//EN"
 "http://www.w3.org/Graphics/SVG/1.1/DTD/svg11.dtd">
<!-- Generated by graphviz version 2.47.0 (20210316.0004)
 -->
<!-- Title: dependencies Pages: 1 -->
<svg width="504pt" height="211pt"
 viewBox="0.00 0.00 504.00 211.00" xmlns="http://www.w3.org/2000/svg" xmlns:xlink="http://www.w3.org/1999/xlink">
<g id="graph0" class="graph" transform="scale(1 1) rotate(0) translate(4 207)">
<title>dependencies</title>
<polygon fill="white" stroke="transparent" points="-4,4 -4,-207 500,-207 500,4 -4,4"/>
<text text-anchor="start" x="227.01" y="-42.4" font-family="Times-12" font-weight="bold" font-size="14.00">Legend</text>
<polygon fill="#ffffb3" stroke="transparent" points="14,-10 14,-30 34,-30 34,-10 14,-10"/>
<text text-anchor="start" x="37.63" y="-15.4" font-family="Times-12" font-size="14.00"> &#160;Declarations</text>
<polygon fill="#8dd3c7" stroke="transparent" points="127,-10 127,-30 147,-30 147,-10 127,-10"/>
<text text-anchor="start" x="150.73" y="-15.4" font-family="Times-12" font-size="14.00"> &#160;Module</text>
<polygon fill="#80b1d3" stroke="transparent" points="213,-10 213,-30 233,-30 233,-10 213,-10"/>
<text text-anchor="start" x="236.78" y="-15.4" font-family="Times-12" font-size="14.00"> &#160;Bootstrap</text>
<polygon fill="#fdb462" stroke="transparent" points="310,-10 310,-30 330,-30 330,-10 310,-10"/>
<text text-anchor="start" x="333.67" y="-15.4" font-family="Times-12" font-size="14.00"> &#160;Providers</text>
<polygon fill="#fb8072" stroke="transparent" points="406,-10 406,-30 426,-30 426,-10 406,-10"/>
<text text-anchor="start" x="429.73" y="-15.4" font-family="Times-12" font-size="14.00"> &#160;Exports</text>
<g id="clust1" class="cluster">
<title>cluster_TodosModule</title>
<polygon fill="none" stroke="black" stroke-dasharray="1,5" points="16,-70 16,-195 480,-195 480,-70 16,-70"/>
</g>
<g id="clust2" class="cluster">
<title>cluster_TodosModule_declarations</title>
<polygon fill="none" stroke="black" points="340,-78 340,-130 472,-130 472,-78 340,-78"/>
</g>
<g id="clust4" class="cluster">
<title>cluster_TodosModule_imports</title>
<polygon fill="none" stroke="black" points="176,-78 176,-130 332,-130 332,-78 176,-78"/>
</g>
<g id="clust7" class="cluster">
<title>cluster_TodosModule_providers</title>
<polygon fill="none" stroke="black" points="24,-78 24,-130 168,-130 168,-78 24,-78"/>
</g>
<!-- TodosComponent -->
<g id="node1" class="node">
<title>TodosComponent</title>
<polygon fill="#ffffb3" stroke="black" points="464.33,-122 347.67,-122 347.67,-86 464.33,-86 464.33,-122"/>
<text text-anchor="middle" x="406" y="-99.8" font-family="Times,serif" font-size="14.00">TodosComponent</text>
</g>
<!-- TodosModule -->
<g id="node2" class="node">
<title>TodosModule</title>
<polygon fill="#8dd3c7" stroke="black" points="301.05,-187 298.05,-191 277.05,-191 274.05,-187 206.95,-187 206.95,-151 301.05,-151 301.05,-187"/>
<text text-anchor="middle" x="254" y="-164.8" font-family="Times,serif" font-size="14.00">TodosModule</text>
</g>
<!-- TodosComponent&#45;&gt;TodosModule -->
<g id="edge1" class="edge">
<title>TodosComponent&#45;&gt;TodosModule</title>
<path fill="none" stroke="black" d="M406,-122.11C406,-141.34 406,-169 406,-169 406,-169 311.26,-169 311.26,-169"/>
<polygon fill="black" stroke="black" points="311.26,-165.5 301.26,-169 311.26,-172.5 311.26,-165.5"/>
</g>
<!-- TodosRoutingModule -->
<g id="node3" class="node">
<title>TodosRoutingModule</title>
<polygon fill="#8dd3c7" stroke="black" points="323.67,-122 320.67,-126 299.67,-126 296.67,-122 184.33,-122 184.33,-86 323.67,-86 323.67,-122"/>
<text text-anchor="middle" x="254" y="-99.8" font-family="Times,serif" font-size="14.00">TodosRoutingModule</text>
</g>
<!-- TodosRoutingModule&#45;&gt;TodosModule -->
<g id="edge2" class="edge">
<title>TodosRoutingModule&#45;&gt;TodosModule</title>
<path fill="none" stroke="black" d="M254,-122.11C254,-122.11 254,-140.99 254,-140.99"/>
<polygon fill="black" stroke="black" points="250.5,-140.99 254,-150.99 257.5,-140.99 250.5,-140.99"/>
</g>
<!-- TodosService -->
<g id="node4" class="node">
<title>TodosService</title>
<ellipse fill="#fdb462" stroke="black" cx="96" cy="-104" rx="64.26" ry="18"/>
<text text-anchor="middle" x="96" y="-99.8" font-family="Times,serif" font-size="14.00">TodosService</text>
</g>
<!-- TodosService&#45;&gt;TodosModule -->
<g id="edge3" class="edge">
<title>TodosService&#45;&gt;TodosModule</title>
<path fill="none" stroke="black" d="M96,-122.11C96,-141.34 96,-169 96,-169 96,-169 196.59,-169 196.59,-169"/>
<polygon fill="black" stroke="black" points="196.59,-172.5 206.59,-169 196.59,-165.5 196.59,-172.5"/>
</g>
</g>
</svg>
