<?xml version="1.0" encoding="UTF-8" standalone="no"?>
<!DOCTYPE svg PUBLIC "-//W3C//DTD SVG 1.1//EN"
 "http://www.w3.org/Graphics/SVG/1.1/DTD/svg11.dtd">
<!-- Generated by graphviz version 2.47.0 (20210316.0004)
 -->
<!-- Title: dependencies Pages: 1 -->
<svg width="536pt" height="211pt"
 viewBox="0.00 0.00 536.00 211.00" xmlns="http://www.w3.org/2000/svg" xmlns:xlink="http://www.w3.org/1999/xlink">
<g id="graph0" class="graph" transform="scale(1 1) rotate(0) translate(4 207)">
<title>dependencies</title>
<polygon fill="white" stroke="transparent" points="-4,4 -4,-207 532,-207 532,4 -4,4"/>
<text text-anchor="start" x="243.01" y="-42.4" font-family="Times-12" font-weight="bold" font-size="14.00">Legend</text>
<polygon fill="#ffffb3" stroke="transparent" points="30,-10 30,-30 50,-30 50,-10 30,-10"/>
<text text-anchor="start" x="53.63" y="-15.4" font-family="Times-12" font-size="14.00"> &#160;Declarations</text>
<polygon fill="#8dd3c7" stroke="transparent" points="143,-10 143,-30 163,-30 163,-10 143,-10"/>
<text text-anchor="start" x="166.73" y="-15.4" font-family="Times-12" font-size="14.00"> &#160;Module</text>
<polygon fill="#80b1d3" stroke="transparent" points="229,-10 229,-30 249,-30 249,-10 229,-10"/>
<text text-anchor="start" x="252.78" y="-15.4" font-family="Times-12" font-size="14.00"> &#160;Bootstrap</text>
<polygon fill="#fdb462" stroke="transparent" points="326,-10 326,-30 346,-30 346,-10 326,-10"/>
<text text-anchor="start" x="349.67" y="-15.4" font-family="Times-12" font-size="14.00"> &#160;Providers</text>
<polygon fill="#fb8072" stroke="transparent" points="422,-10 422,-30 442,-30 442,-10 422,-10"/>
<text text-anchor="start" x="445.73" y="-15.4" font-family="Times-12" font-size="14.00"> &#160;Exports</text>
<g id="clust1" class="cluster">
<title>cluster_ProductsModule</title>
<polygon fill="none" stroke="black" stroke-dasharray="1,5" points="8,-70 8,-195 520,-195 520,-70 8,-70"/>
</g>
<g id="clust4" class="cluster">
<title>cluster_ProductsModule_imports</title>
<polygon fill="none" stroke="black" points="342,-78 342,-130 512,-130 512,-78 342,-78"/>
</g>
<g id="clust2" class="cluster">
<title>cluster_ProductsModule_declarations</title>
<polygon fill="none" stroke="black" points="188,-78 188,-130 334,-130 334,-78 188,-78"/>
</g>
<g id="clust7" class="cluster">
<title>cluster_ProductsModule_providers</title>
<polygon fill="none" stroke="black" points="16,-78 16,-130 180,-130 180,-78 16,-78"/>
</g>
<!-- ProductsComponent -->
<g id="node1" class="node">
<title>ProductsComponent</title>
<polygon fill="#ffffb3" stroke="black" points="326.33,-122 195.67,-122 195.67,-86 326.33,-86 326.33,-122"/>
<text text-anchor="middle" x="261" y="-99.8" font-family="Times,serif" font-size="14.00">ProductsComponent</text>
</g>
<!-- ProductsModule -->
<g id="node2" class="node">
<title>ProductsModule</title>
<polygon fill="#8dd3c7" stroke="black" points="315.04,-187 312.04,-191 291.04,-191 288.04,-187 206.96,-187 206.96,-151 315.04,-151 315.04,-187"/>
<text text-anchor="middle" x="261" y="-164.8" font-family="Times,serif" font-size="14.00">ProductsModule</text>
</g>
<!-- ProductsComponent&#45;&gt;ProductsModule -->
<g id="edge1" class="edge">
<title>ProductsComponent&#45;&gt;ProductsModule</title>
<path fill="none" stroke="black" d="M261,-122.11C261,-122.11 261,-140.99 261,-140.99"/>
<polygon fill="black" stroke="black" points="257.5,-140.99 261,-150.99 264.5,-140.99 257.5,-140.99"/>
</g>
<!-- ProductsRoutingModule -->
<g id="node3" class="node">
<title>ProductsRoutingModule</title>
<polygon fill="#8dd3c7" stroke="black" points="503.66,-122 500.66,-126 479.66,-126 476.66,-122 350.34,-122 350.34,-86 503.66,-86 503.66,-122"/>
<text text-anchor="middle" x="427" y="-99.8" font-family="Times,serif" font-size="14.00">ProductsRoutingModule</text>
</g>
<!-- ProductsRoutingModule&#45;&gt;ProductsModule -->
<g id="edge2" class="edge">
<title>ProductsRoutingModule&#45;&gt;ProductsModule</title>
<path fill="none" stroke="black" d="M427,-122.11C427,-141.34 427,-169 427,-169 427,-169 325.35,-169 325.35,-169"/>
<polygon fill="black" stroke="black" points="325.35,-165.5 315.35,-169 325.35,-172.5 325.35,-165.5"/>
</g>
<!-- ProductsService -->
<g id="node4" class="node">
<title>ProductsService</title>
<ellipse fill="#fdb462" stroke="black" cx="98" cy="-104" rx="73.57" ry="18"/>
<text text-anchor="middle" x="98" y="-99.8" font-family="Times,serif" font-size="14.00">ProductsService</text>
</g>
<!-- ProductsService&#45;&gt;ProductsModule -->
<g id="edge3" class="edge">
<title>ProductsService&#45;&gt;ProductsModule</title>
<path fill="none" stroke="black" d="M98,-122.11C98,-141.34 98,-169 98,-169 98,-169 196.72,-169 196.72,-169"/>
<polygon fill="black" stroke="black" points="196.72,-172.5 206.72,-169 196.72,-165.5 196.72,-172.5"/>
</g>
</g>
</svg>
