<?xml version="1.0" encoding="UTF-8" standalone="no"?>
<!DOCTYPE svg PUBLIC "-//W3C//DTD SVG 1.1//EN"
 "http://www.w3.org/Graphics/SVG/1.1/DTD/svg11.dtd">
<!-- Generated by graphviz version 2.47.0 (20210316.0004)
 -->
<!-- Title: dependencies Pages: 1 -->
<svg width="3822pt" height="284pt"
 viewBox="0.00 0.00 3822.00 284.00" xmlns="http://www.w3.org/2000/svg" xmlns:xlink="http://www.w3.org/1999/xlink">
<g id="graph0" class="graph" transform="scale(1 1) rotate(0) translate(4 280)">
<title>dependencies</title>
<polygon fill="white" stroke="transparent" points="-4,4 -4,-280 3818,-280 3818,4 -4,4"/>
<text text-anchor="start" x="1886.01" y="-42.4" font-family="Times-12" font-weight="bold" font-size="14.00">Legend</text>
<polygon fill="#ffffb3" stroke="transparent" points="1673,-10 1673,-30 1693,-30 1693,-10 1673,-10"/>
<text text-anchor="start" x="1696.63" y="-15.4" font-family="Times-12" font-size="14.00"> &#160;Declarations</text>
<polygon fill="#8dd3c7" stroke="transparent" points="1786,-10 1786,-30 1806,-30 1806,-10 1786,-10"/>
<text text-anchor="start" x="1809.73" y="-15.4" font-family="Times-12" font-size="14.00"> &#160;Module</text>
<polygon fill="#80b1d3" stroke="transparent" points="1872,-10 1872,-30 1892,-30 1892,-10 1872,-10"/>
<text text-anchor="start" x="1895.78" y="-15.4" font-family="Times-12" font-size="14.00"> &#160;Bootstrap</text>
<polygon fill="#fdb462" stroke="transparent" points="1969,-10 1969,-30 1989,-30 1989,-10 1969,-10"/>
<text text-anchor="start" x="1992.67" y="-15.4" font-family="Times-12" font-size="14.00"> &#160;Providers</text>
<polygon fill="#fb8072" stroke="transparent" points="2065,-10 2065,-30 2085,-30 2085,-10 2065,-10"/>
<text text-anchor="start" x="2088.73" y="-15.4" font-family="Times-12" font-size="14.00"> &#160;Exports</text>
<g id="clust1" class="cluster">
<title>cluster_AlbumModule</title>
<polygon fill="none" stroke="black" stroke-dasharray="1,5" points="8,-70 8,-195 486,-195 486,-70 8,-70"/>
</g>
<g id="clust2" class="cluster">
<title>cluster_AlbumModule_declarations</title>
<polygon fill="none" stroke="black" points="342,-78 342,-130 478,-130 478,-78 342,-78"/>
</g>
<g id="clust4" class="cluster">
<title>cluster_AlbumModule_imports</title>
<polygon fill="none" stroke="black" points="174,-78 174,-130 334,-130 334,-78 174,-78"/>
</g>
<g id="clust7" class="cluster">
<title>cluster_AlbumModule_providers</title>
<polygon fill="none" stroke="black" points="16,-78 16,-130 166,-130 166,-78 16,-78"/>
</g>
<g id="clust14" class="cluster">
<title>cluster_AppModule</title>
<polygon fill="none" stroke="black" stroke-dasharray="1,5" points="494,-70 494,-268 1060,-268 1060,-70 494,-70"/>
</g>
<g id="clust15" class="cluster">
<title>cluster_AppModule_declarations</title>
<polygon fill="none" stroke="black" points="654,-78 654,-130 1052,-130 1052,-78 654,-78"/>
</g>
<g id="clust19" class="cluster">
<title>cluster_AppModule_imports</title>
<polygon fill="none" stroke="black" points="502,-78 502,-130 646,-130 646,-78 502,-78"/>
</g>
<g id="clust21" class="cluster">
<title>cluster_AppModule_bootstrap</title>
<polygon fill="none" stroke="black" points="730,-208 730,-260 854,-260 854,-208 730,-208"/>
</g>
<g id="clust29" class="cluster">
<title>cluster_CommentsModule</title>
<polygon fill="none" stroke="black" stroke-dasharray="1,5" points="1068,-70 1068,-195 1620,-195 1620,-70 1068,-70"/>
</g>
<g id="clust30" class="cluster">
<title>cluster_CommentsModule_declarations</title>
<polygon fill="none" stroke="black" points="1454,-78 1454,-130 1612,-130 1612,-78 1454,-78"/>
</g>
<g id="clust32" class="cluster">
<title>cluster_CommentsModule_imports</title>
<polygon fill="none" stroke="black" points="1264,-78 1264,-130 1446,-130 1446,-78 1264,-78"/>
</g>
<g id="clust35" class="cluster">
<title>cluster_CommentsModule_providers</title>
<polygon fill="none" stroke="black" points="1076,-78 1076,-130 1256,-130 1256,-78 1076,-78"/>
</g>
<g id="clust42" class="cluster">
<title>cluster_IndexModule</title>
<polygon fill="none" stroke="black" stroke-dasharray="1,5" points="1628,-70 1628,-195 1934,-195 1934,-70 1628,-70"/>
</g>
<g id="clust43" class="cluster">
<title>cluster_IndexModule_declarations</title>
<polygon fill="none" stroke="black" points="1796,-78 1796,-130 1926,-130 1926,-78 1796,-78"/>
</g>
<g id="clust45" class="cluster">
<title>cluster_IndexModule_imports</title>
<polygon fill="none" stroke="black" points="1636,-78 1636,-130 1788,-130 1788,-78 1636,-78"/>
</g>
<g id="clust55" class="cluster">
<title>cluster_PostModule</title>
<polygon fill="none" stroke="black" stroke-dasharray="1,5" points="1942,-70 1942,-195 2370,-195 2370,-70 1942,-70"/>
</g>
<g id="clust56" class="cluster">
<title>cluster_PostModule_declarations</title>
<polygon fill="none" stroke="black" points="2240,-78 2240,-130 2362,-130 2362,-78 2240,-78"/>
</g>
<g id="clust58" class="cluster">
<title>cluster_PostModule_imports</title>
<polygon fill="none" stroke="black" points="2088,-78 2088,-130 2232,-130 2232,-78 2088,-78"/>
</g>
<g id="clust61" class="cluster">
<title>cluster_PostModule_providers</title>
<polygon fill="none" stroke="black" points="1950,-78 1950,-130 2080,-130 2080,-78 1950,-78"/>
</g>
<g id="clust68" class="cluster">
<title>cluster_ProductsModule</title>
<polygon fill="none" stroke="black" stroke-dasharray="1,5" points="2378,-70 2378,-195 2890,-195 2890,-70 2378,-70"/>
</g>
<g id="clust69" class="cluster">
<title>cluster_ProductsModule_declarations</title>
<polygon fill="none" stroke="black" points="2736,-78 2736,-130 2882,-130 2882,-78 2736,-78"/>
</g>
<g id="clust71" class="cluster">
<title>cluster_ProductsModule_imports</title>
<polygon fill="none" stroke="black" points="2558,-78 2558,-130 2728,-130 2728,-78 2558,-78"/>
</g>
<g id="clust74" class="cluster">
<title>cluster_ProductsModule_providers</title>
<polygon fill="none" stroke="black" points="2386,-78 2386,-130 2550,-130 2550,-78 2386,-78"/>
</g>
<g id="clust81" class="cluster">
<title>cluster_TodosModule</title>
<polygon fill="none" stroke="black" stroke-dasharray="1,5" points="2898,-70 2898,-195 3362,-195 3362,-70 2898,-70"/>
</g>
<g id="clust82" class="cluster">
<title>cluster_TodosModule_declarations</title>
<polygon fill="none" stroke="black" points="3222,-78 3222,-130 3354,-130 3354,-78 3222,-78"/>
</g>
<g id="clust84" class="cluster">
<title>cluster_TodosModule_imports</title>
<polygon fill="none" stroke="black" points="3058,-78 3058,-130 3214,-130 3214,-78 3058,-78"/>
</g>
<g id="clust87" class="cluster">
<title>cluster_TodosModule_providers</title>
<polygon fill="none" stroke="black" points="2906,-78 2906,-130 3050,-130 3050,-78 2906,-78"/>
</g>
<g id="clust94" class="cluster">
<title>cluster_UserModule</title>
<polygon fill="none" stroke="black" stroke-dasharray="1,5" points="3370,-70 3370,-195 3806,-195 3806,-70 3370,-70"/>
</g>
<g id="clust95" class="cluster">
<title>cluster_UserModule_declarations</title>
<polygon fill="none" stroke="black" points="3674,-78 3674,-130 3798,-130 3798,-78 3674,-78"/>
</g>
<g id="clust97" class="cluster">
<title>cluster_UserModule_imports</title>
<polygon fill="none" stroke="black" points="3518,-78 3518,-130 3666,-130 3666,-78 3518,-78"/>
</g>
<g id="clust100" class="cluster">
<title>cluster_UserModule_providers</title>
<polygon fill="none" stroke="black" points="3378,-78 3378,-130 3510,-130 3510,-78 3378,-78"/>
</g>
<!-- AlbumComponent -->
<g id="node1" class="node">
<title>AlbumComponent</title>
<polygon fill="#ffffb3" stroke="black" points="470.22,-122 349.78,-122 349.78,-86 470.22,-86 470.22,-122"/>
<text text-anchor="middle" x="410" y="-99.8" font-family="Times,serif" font-size="14.00">AlbumComponent</text>
</g>
<!-- AlbumModule -->
<g id="node2" class="node">
<title>AlbumModule</title>
<polygon fill="#8dd3c7" stroke="black" points="303.44,-187 300.44,-191 279.44,-191 276.44,-187 204.56,-187 204.56,-151 303.44,-151 303.44,-187"/>
<text text-anchor="middle" x="254" y="-164.8" font-family="Times,serif" font-size="14.00">AlbumModule</text>
</g>
<!-- AlbumComponent&#45;&gt;AlbumModule -->
<g id="edge1" class="edge">
<title>AlbumComponent&#45;&gt;AlbumModule</title>
<path fill="none" stroke="black" d="M410,-122.28C410,-143.32 410,-175 410,-175 410,-175 313.36,-175 313.36,-175"/>
<polygon fill="black" stroke="black" points="313.36,-171.5 303.36,-175 313.36,-178.5 313.36,-171.5"/>
</g>
<!-- AlbumRoutingModule -->
<g id="node3" class="node">
<title>AlbumRoutingModule</title>
<polygon fill="#8dd3c7" stroke="black" points="325.56,-122 322.56,-126 301.56,-126 298.56,-122 182.44,-122 182.44,-86 325.56,-86 325.56,-122"/>
<text text-anchor="middle" x="254" y="-99.8" font-family="Times,serif" font-size="14.00">AlbumRoutingModule</text>
</g>
<!-- AlbumRoutingModule&#45;&gt;AlbumModule -->
<g id="edge2" class="edge">
<title>AlbumRoutingModule&#45;&gt;AlbumModule</title>
<path fill="none" stroke="black" d="M254,-122.11C254,-122.11 254,-140.99 254,-140.99"/>
<polygon fill="black" stroke="black" points="250.5,-140.99 254,-150.99 257.5,-140.99 250.5,-140.99"/>
</g>
<!-- AlbumService -->
<g id="node4" class="node">
<title>AlbumService</title>
<ellipse fill="#fdb462" stroke="black" cx="91" cy="-104" rx="66.63" ry="18"/>
<text text-anchor="middle" x="91" y="-99.8" font-family="Times,serif" font-size="14.00">AlbumService</text>
</g>
<!-- AlbumService&#45;&gt;AlbumModule -->
<g id="edge3" class="edge">
<title>AlbumService&#45;&gt;AlbumModule</title>
<path fill="none" stroke="black" d="M91,-122.11C91,-141.34 91,-169 91,-169 91,-169 194.65,-169 194.65,-169"/>
<polygon fill="black" stroke="black" points="194.65,-172.5 204.65,-169 194.65,-165.5 194.65,-172.5"/>
</g>
<!-- AppComponent -->
<g id="node5" class="node">
<title>AppComponent</title>
<polygon fill="#ffffb3" stroke="black" points="1043.94,-122 938.06,-122 938.06,-86 1043.94,-86 1043.94,-122"/>
<text text-anchor="middle" x="991" y="-99.8" font-family="Times,serif" font-size="14.00">AppComponent</text>
</g>
<!-- AppModule -->
<g id="node8" class="node">
<title>AppModule</title>
<polygon fill="#8dd3c7" stroke="black" points="833.66,-187 830.66,-191 809.66,-191 806.66,-187 750.34,-187 750.34,-151 833.66,-151 833.66,-187"/>
<text text-anchor="middle" x="792" y="-164.8" font-family="Times,serif" font-size="14.00">AppModule</text>
</g>
<!-- AppComponent&#45;&gt;AppModule -->
<g id="edge4" class="edge">
<title>AppComponent&#45;&gt;AppModule</title>
<path fill="none" stroke="black" d="M991,-122.02C991,-139.37 991,-163 991,-163 991,-163 843.72,-163 843.72,-163"/>
<polygon fill="black" stroke="black" points="843.72,-159.5 833.72,-163 843.72,-166.5 843.72,-159.5"/>
</g>
<!-- FooterComponent -->
<g id="node6" class="node">
<title>FooterComponent</title>
<polygon fill="#ffffb3" stroke="black" points="919.88,-122 802.12,-122 802.12,-86 919.88,-86 919.88,-122"/>
<text text-anchor="middle" x="861" y="-99.8" font-family="Times,serif" font-size="14.00">FooterComponent</text>
</g>
<!-- FooterComponent&#45;&gt;AppModule -->
<g id="edge5" class="edge">
<title>FooterComponent&#45;&gt;AppModule</title>
<path fill="none" stroke="black" d="M817.94,-122.11C817.94,-122.11 817.94,-140.99 817.94,-140.99"/>
<polygon fill="black" stroke="black" points="814.44,-140.99 817.94,-150.99 821.44,-140.99 814.44,-140.99"/>
</g>
<!-- NavbarComponent -->
<g id="node7" class="node">
<title>NavbarComponent</title>
<polygon fill="#ffffb3" stroke="black" points="784.03,-122 661.97,-122 661.97,-86 784.03,-86 784.03,-122"/>
<text text-anchor="middle" x="723" y="-99.8" font-family="Times,serif" font-size="14.00">NavbarComponent</text>
</g>
<!-- NavbarComponent&#45;&gt;AppModule -->
<g id="edge6" class="edge">
<title>NavbarComponent&#45;&gt;AppModule</title>
<path fill="none" stroke="black" d="M767.22,-122.11C767.22,-122.11 767.22,-140.99 767.22,-140.99"/>
<polygon fill="black" stroke="black" points="763.72,-140.99 767.22,-150.99 770.72,-140.99 763.72,-140.99"/>
</g>
<!-- AppComponent  -->
<g id="node10" class="node">
<title>AppComponent </title>
<polygon fill="#80b1d3" stroke="black" points="846.44,-252 737.56,-252 737.56,-216 846.44,-216 846.44,-252"/>
<text text-anchor="middle" x="792" y="-229.8" font-family="Times,serif" font-size="14.00">AppComponent </text>
</g>
<!-- AppModule&#45;&gt;AppComponent  -->
<g id="edge8" class="edge">
<title>AppModule&#45;&gt;AppComponent </title>
<path fill="none" stroke="black" stroke-dasharray="1,5" d="M792,-187.11C792,-187.11 792,-205.99 792,-205.99"/>
<polygon fill="black" stroke="black" points="788.5,-205.99 792,-215.99 795.5,-205.99 788.5,-205.99"/>
</g>
<!-- AppRoutingModule -->
<g id="node9" class="node">
<title>AppRoutingModule</title>
<polygon fill="#8dd3c7" stroke="black" points="638.27,-122 635.27,-126 614.27,-126 611.27,-122 509.73,-122 509.73,-86 638.27,-86 638.27,-122"/>
<text text-anchor="middle" x="574" y="-99.8" font-family="Times,serif" font-size="14.00">AppRoutingModule</text>
</g>
<!-- AppRoutingModule&#45;&gt;AppModule -->
<g id="edge7" class="edge">
<title>AppRoutingModule&#45;&gt;AppModule</title>
<path fill="none" stroke="black" d="M574,-122.02C574,-139.37 574,-163 574,-163 574,-163 740.23,-163 740.23,-163"/>
<polygon fill="black" stroke="black" points="740.23,-166.5 750.23,-163 740.23,-159.5 740.23,-166.5"/>
</g>
<!-- CommentsComponent -->
<g id="node11" class="node">
<title>CommentsComponent</title>
<polygon fill="#ffffb3" stroke="black" points="1604,-122 1462,-122 1462,-86 1604,-86 1604,-122"/>
<text text-anchor="middle" x="1533" y="-99.8" font-family="Times,serif" font-size="14.00">CommentsComponent</text>
</g>
<!-- CommentsModule -->
<g id="node12" class="node">
<title>CommentsModule</title>
<polygon fill="#8dd3c7" stroke="black" points="1415.22,-187 1412.22,-191 1391.22,-191 1388.22,-187 1294.78,-187 1294.78,-151 1415.22,-151 1415.22,-187"/>
<text text-anchor="middle" x="1355" y="-164.8" font-family="Times,serif" font-size="14.00">CommentsModule</text>
</g>
<!-- CommentsComponent&#45;&gt;CommentsModule -->
<g id="edge9" class="edge">
<title>CommentsComponent&#45;&gt;CommentsModule</title>
<path fill="none" stroke="black" d="M1533,-122.11C1533,-141.34 1533,-169 1533,-169 1533,-169 1425.26,-169 1425.26,-169"/>
<polygon fill="black" stroke="black" points="1425.26,-165.5 1415.26,-169 1425.26,-172.5 1425.26,-165.5"/>
</g>
<!-- CommentsRoutingModule -->
<g id="node13" class="node">
<title>CommentsRoutingModule</title>
<polygon fill="#8dd3c7" stroke="black" points="1437.84,-122 1434.84,-126 1413.84,-126 1410.84,-122 1272.16,-122 1272.16,-86 1437.84,-86 1437.84,-122"/>
<text text-anchor="middle" x="1355" y="-99.8" font-family="Times,serif" font-size="14.00">CommentsRoutingModule</text>
</g>
<!-- CommentsRoutingModule&#45;&gt;CommentsModule -->
<g id="edge10" class="edge">
<title>CommentsRoutingModule&#45;&gt;CommentsModule</title>
<path fill="none" stroke="black" d="M1355,-122.11C1355,-122.11 1355,-140.99 1355,-140.99"/>
<polygon fill="black" stroke="black" points="1351.5,-140.99 1355,-150.99 1358.5,-140.99 1351.5,-140.99"/>
</g>
<!-- CommentsService -->
<g id="node14" class="node">
<title>CommentsService</title>
<ellipse fill="#fdb462" stroke="black" cx="1166" cy="-104" rx="81.68" ry="18"/>
<text text-anchor="middle" x="1166" y="-99.8" font-family="Times,serif" font-size="14.00">CommentsService</text>
</g>
<!-- CommentsService&#45;&gt;CommentsModule -->
<g id="edge11" class="edge">
<title>CommentsService&#45;&gt;CommentsModule</title>
<path fill="none" stroke="black" d="M1166,-122.28C1166,-143.32 1166,-175 1166,-175 1166,-175 1284.68,-175 1284.68,-175"/>
<polygon fill="black" stroke="black" points="1284.68,-178.5 1294.68,-175 1284.68,-171.5 1284.68,-178.5"/>
</g>
<!-- IndexComponent -->
<g id="node15" class="node">
<title>IndexComponent</title>
<polygon fill="#ffffb3" stroke="black" points="1917.71,-122 1804.29,-122 1804.29,-86 1917.71,-86 1917.71,-122"/>
<text text-anchor="middle" x="1861" y="-99.8" font-family="Times,serif" font-size="14.00">IndexComponent</text>
</g>
<!-- IndexModule -->
<g id="node16" class="node">
<title>IndexModule</title>
<polygon fill="#8dd3c7" stroke="black" points="1831.93,-187 1828.93,-191 1807.93,-191 1804.93,-187 1740.07,-187 1740.07,-151 1831.93,-151 1831.93,-187"/>
<text text-anchor="middle" x="1786" y="-164.8" font-family="Times,serif" font-size="14.00">IndexModule</text>
</g>
<!-- IndexComponent&#45;&gt;IndexModule -->
<g id="edge12" class="edge">
<title>IndexComponent&#45;&gt;IndexModule</title>
<path fill="none" stroke="black" d="M1818.05,-122.11C1818.05,-122.11 1818.05,-140.99 1818.05,-140.99"/>
<polygon fill="black" stroke="black" points="1814.55,-140.99 1818.05,-150.99 1821.55,-140.99 1814.55,-140.99"/>
</g>
<!-- IndexRoutingModule -->
<g id="node17" class="node">
<title>IndexRoutingModule</title>
<polygon fill="#8dd3c7" stroke="black" points="1780.04,-122 1777.04,-126 1756.04,-126 1753.04,-122 1643.96,-122 1643.96,-86 1780.04,-86 1780.04,-122"/>
<text text-anchor="middle" x="1712" y="-99.8" font-family="Times,serif" font-size="14.00">IndexRoutingModule</text>
</g>
<!-- IndexRoutingModule&#45;&gt;IndexModule -->
<g id="edge13" class="edge">
<title>IndexRoutingModule&#45;&gt;IndexModule</title>
<path fill="none" stroke="black" d="M1760.28,-122.11C1760.28,-122.11 1760.28,-140.99 1760.28,-140.99"/>
<polygon fill="black" stroke="black" points="1756.78,-140.99 1760.28,-150.99 1763.78,-140.99 1756.78,-140.99"/>
</g>
<!-- PostComponent -->
<g id="node18" class="node">
<title>PostComponent</title>
<polygon fill="#ffffb3" stroke="black" points="2353.95,-122 2248.05,-122 2248.05,-86 2353.95,-86 2353.95,-122"/>
<text text-anchor="middle" x="2301" y="-99.8" font-family="Times,serif" font-size="14.00">PostComponent</text>
</g>
<!-- PostModule -->
<g id="node19" class="node">
<title>PostModule</title>
<polygon fill="#8dd3c7" stroke="black" points="2201.67,-187 2198.67,-191 2177.67,-191 2174.67,-187 2118.33,-187 2118.33,-151 2201.67,-151 2201.67,-187"/>
<text text-anchor="middle" x="2160" y="-164.8" font-family="Times,serif" font-size="14.00">PostModule</text>
</g>
<!-- PostComponent&#45;&gt;PostModule -->
<g id="edge14" class="edge">
<title>PostComponent&#45;&gt;PostModule</title>
<path fill="none" stroke="black" d="M2301,-122.28C2301,-143.32 2301,-175 2301,-175 2301,-175 2211.92,-175 2211.92,-175"/>
<polygon fill="black" stroke="black" points="2211.92,-171.5 2201.92,-175 2211.92,-178.5 2211.92,-171.5"/>
</g>
<!-- PostRoutingModule -->
<g id="node20" class="node">
<title>PostRoutingModule</title>
<polygon fill="#8dd3c7" stroke="black" points="2224.29,-122 2221.29,-126 2200.29,-126 2197.29,-122 2095.71,-122 2095.71,-86 2224.29,-86 2224.29,-122"/>
<text text-anchor="middle" x="2160" y="-99.8" font-family="Times,serif" font-size="14.00">PostRoutingModule</text>
</g>
<!-- PostRoutingModule&#45;&gt;PostModule -->
<g id="edge15" class="edge">
<title>PostRoutingModule&#45;&gt;PostModule</title>
<path fill="none" stroke="black" d="M2160,-122.11C2160,-122.11 2160,-140.99 2160,-140.99"/>
<polygon fill="black" stroke="black" points="2156.5,-140.99 2160,-150.99 2163.5,-140.99 2156.5,-140.99"/>
</g>
<!-- PostService -->
<g id="node21" class="node">
<title>PostService</title>
<ellipse fill="#fdb462" stroke="black" cx="2015" cy="-104" rx="56.76" ry="18"/>
<text text-anchor="middle" x="2015" y="-99.8" font-family="Times,serif" font-size="14.00">PostService</text>
</g>
<!-- PostService&#45;&gt;PostModule -->
<g id="edge16" class="edge">
<title>PostService&#45;&gt;PostModule</title>
<path fill="none" stroke="black" d="M2015,-122.11C2015,-141.34 2015,-169 2015,-169 2015,-169 2108.06,-169 2108.06,-169"/>
<polygon fill="black" stroke="black" points="2108.06,-172.5 2118.06,-169 2108.06,-165.5 2108.06,-172.5"/>
</g>
<!-- ProductsComponent -->
<g id="node22" class="node">
<title>ProductsComponent</title>
<polygon fill="#ffffb3" stroke="black" points="2874.33,-122 2743.67,-122 2743.67,-86 2874.33,-86 2874.33,-122"/>
<text text-anchor="middle" x="2809" y="-99.8" font-family="Times,serif" font-size="14.00">ProductsComponent</text>
</g>
<!-- ProductsModule -->
<g id="node23" class="node">
<title>ProductsModule</title>
<polygon fill="#8dd3c7" stroke="black" points="2697.04,-187 2694.04,-191 2673.04,-191 2670.04,-187 2588.96,-187 2588.96,-151 2697.04,-151 2697.04,-187"/>
<text text-anchor="middle" x="2643" y="-164.8" font-family="Times,serif" font-size="14.00">ProductsModule</text>
</g>
<!-- ProductsComponent&#45;&gt;ProductsModule -->
<g id="edge17" class="edge">
<title>ProductsComponent&#45;&gt;ProductsModule</title>
<path fill="none" stroke="black" d="M2809,-122.02C2809,-139.37 2809,-163 2809,-163 2809,-163 2707.35,-163 2707.35,-163"/>
<polygon fill="black" stroke="black" points="2707.35,-159.5 2697.35,-163 2707.35,-166.5 2707.35,-159.5"/>
</g>
<!-- ProductsRoutingModule -->
<g id="node24" class="node">
<title>ProductsRoutingModule</title>
<polygon fill="#8dd3c7" stroke="black" points="2719.66,-122 2716.66,-126 2695.66,-126 2692.66,-122 2566.34,-122 2566.34,-86 2719.66,-86 2719.66,-122"/>
<text text-anchor="middle" x="2643" y="-99.8" font-family="Times,serif" font-size="14.00">ProductsRoutingModule</text>
</g>
<!-- ProductsRoutingModule&#45;&gt;ProductsModule -->
<g id="edge18" class="edge">
<title>ProductsRoutingModule&#45;&gt;ProductsModule</title>
<path fill="none" stroke="black" d="M2643,-122.11C2643,-122.11 2643,-140.99 2643,-140.99"/>
<polygon fill="black" stroke="black" points="2639.5,-140.99 2643,-150.99 2646.5,-140.99 2639.5,-140.99"/>
</g>
<!-- ProductsService -->
<g id="node25" class="node">
<title>ProductsService</title>
<ellipse fill="#fdb462" stroke="black" cx="2468" cy="-104" rx="73.57" ry="18"/>
<text text-anchor="middle" x="2468" y="-99.8" font-family="Times,serif" font-size="14.00">ProductsService</text>
</g>
<!-- ProductsService&#45;&gt;ProductsModule -->
<g id="edge19" class="edge">
<title>ProductsService&#45;&gt;ProductsModule</title>
<path fill="none" stroke="black" d="M2468,-122.02C2468,-139.37 2468,-163 2468,-163 2468,-163 2578.59,-163 2578.59,-163"/>
<polygon fill="black" stroke="black" points="2578.59,-166.5 2588.59,-163 2578.59,-159.5 2578.59,-166.5"/>
</g>
<!-- TodosComponent -->
<g id="node26" class="node">
<title>TodosComponent</title>
<polygon fill="#ffffb3" stroke="black" points="3346.33,-122 3229.67,-122 3229.67,-86 3346.33,-86 3346.33,-122"/>
<text text-anchor="middle" x="3288" y="-99.8" font-family="Times,serif" font-size="14.00">TodosComponent</text>
</g>
<!-- TodosModule -->
<g id="node27" class="node">
<title>TodosModule</title>
<polygon fill="#8dd3c7" stroke="black" points="3183.05,-187 3180.05,-191 3159.05,-191 3156.05,-187 3088.95,-187 3088.95,-151 3183.05,-151 3183.05,-187"/>
<text text-anchor="middle" x="3136" y="-164.8" font-family="Times,serif" font-size="14.00">TodosModule</text>
</g>
<!-- TodosComponent&#45;&gt;TodosModule -->
<g id="edge20" class="edge">
<title>TodosComponent&#45;&gt;TodosModule</title>
<path fill="none" stroke="black" d="M3288,-122.02C3288,-139.37 3288,-163 3288,-163 3288,-163 3193.26,-163 3193.26,-163"/>
<polygon fill="black" stroke="black" points="3193.26,-159.5 3183.26,-163 3193.26,-166.5 3193.26,-159.5"/>
</g>
<!-- TodosRoutingModule -->
<g id="node28" class="node">
<title>TodosRoutingModule</title>
<polygon fill="#8dd3c7" stroke="black" points="3205.67,-122 3202.67,-126 3181.67,-126 3178.67,-122 3066.33,-122 3066.33,-86 3205.67,-86 3205.67,-122"/>
<text text-anchor="middle" x="3136" y="-99.8" font-family="Times,serif" font-size="14.00">TodosRoutingModule</text>
</g>
<!-- TodosRoutingModule&#45;&gt;TodosModule -->
<g id="edge21" class="edge">
<title>TodosRoutingModule&#45;&gt;TodosModule</title>
<path fill="none" stroke="black" d="M3136,-122.11C3136,-122.11 3136,-140.99 3136,-140.99"/>
<polygon fill="black" stroke="black" points="3132.5,-140.99 3136,-150.99 3139.5,-140.99 3132.5,-140.99"/>
</g>
<!-- TodosService -->
<g id="node29" class="node">
<title>TodosService</title>
<ellipse fill="#fdb462" stroke="black" cx="2978" cy="-104" rx="64.26" ry="18"/>
<text text-anchor="middle" x="2978" y="-99.8" font-family="Times,serif" font-size="14.00">TodosService</text>
</g>
<!-- TodosService&#45;&gt;TodosModule -->
<g id="edge22" class="edge">
<title>TodosService&#45;&gt;TodosModule</title>
<path fill="none" stroke="black" d="M2978,-122.28C2978,-143.32 2978,-175 2978,-175 2978,-175 3078.59,-175 3078.59,-175"/>
<polygon fill="black" stroke="black" points="3078.59,-178.5 3088.59,-175 3078.59,-171.5 3078.59,-178.5"/>
</g>
<!-- UserComponent -->
<g id="node30" class="node">
<title>UserComponent</title>
<polygon fill="#ffffb3" stroke="black" points="3789.76,-122 3682.24,-122 3682.24,-86 3789.76,-86 3789.76,-122"/>
<text text-anchor="middle" x="3736" y="-99.8" font-family="Times,serif" font-size="14.00">UserComponent</text>
</g>
<!-- UserModule -->
<g id="node31" class="node">
<title>UserModule</title>
<polygon fill="#8dd3c7" stroke="black" points="3634.98,-187 3631.98,-191 3610.98,-191 3607.98,-187 3549.02,-187 3549.02,-151 3634.98,-151 3634.98,-187"/>
<text text-anchor="middle" x="3592" y="-164.8" font-family="Times,serif" font-size="14.00">UserModule</text>
</g>
<!-- UserComponent&#45;&gt;UserModule -->
<g id="edge23" class="edge">
<title>UserComponent&#45;&gt;UserModule</title>
<path fill="none" stroke="black" d="M3736,-122.11C3736,-141.34 3736,-169 3736,-169 3736,-169 3645.2,-169 3645.2,-169"/>
<polygon fill="black" stroke="black" points="3645.2,-165.5 3635.2,-169 3645.2,-172.5 3645.2,-165.5"/>
</g>
<!-- UserRoutingModule -->
<g id="node32" class="node">
<title>UserRoutingModule</title>
<polygon fill="#8dd3c7" stroke="black" points="3657.59,-122 3654.59,-126 3633.59,-126 3630.59,-122 3526.41,-122 3526.41,-86 3657.59,-86 3657.59,-122"/>
<text text-anchor="middle" x="3592" y="-99.8" font-family="Times,serif" font-size="14.00">UserRoutingModule</text>
</g>
<!-- UserRoutingModule&#45;&gt;UserModule -->
<g id="edge24" class="edge">
<title>UserRoutingModule&#45;&gt;UserModule</title>
<path fill="none" stroke="black" d="M3592,-122.11C3592,-122.11 3592,-140.99 3592,-140.99"/>
<polygon fill="black" stroke="black" points="3588.5,-140.99 3592,-150.99 3595.5,-140.99 3588.5,-140.99"/>
</g>
<!-- UserService -->
<g id="node33" class="node">
<title>UserService</title>
<ellipse fill="#fdb462" stroke="black" cx="3444" cy="-104" rx="58.44" ry="18"/>
<text text-anchor="middle" x="3444" y="-99.8" font-family="Times,serif" font-size="14.00">UserService</text>
</g>
<!-- UserService&#45;&gt;UserModule -->
<g id="edge25" class="edge">
<title>UserService&#45;&gt;UserModule</title>
<path fill="none" stroke="black" d="M3444,-122.28C3444,-143.32 3444,-175 3444,-175 3444,-175 3538.79,-175 3538.79,-175"/>
<polygon fill="black" stroke="black" points="3538.79,-178.5 3548.79,-175 3538.79,-171.5 3538.79,-178.5"/>
</g>
</g>
</svg>
